<?xml version="1.0" encoding="UTF-8" standalone="no"?>
<svg
   version="1.1"
   width="512"
   height="512"
   id="svg21"
   sodipodi:docname="cat.svg"
   inkscape:version="1.4 (e7c3feb1, 2024-10-09)"
   xmlns:inkscape="http://www.inkscape.org/namespaces/inkscape"
   xmlns:sodipodi="http://sodipodi.sourceforge.net/DTD/sodipodi-0.dtd"
   xmlns="http://www.w3.org/2000/svg"
   xmlns:svg="http://www.w3.org/2000/svg">
  <defs
     id="defs21" />
  <sodipodi:namedview
     id="namedview21"
     pagecolor="#ffffff"
     bordercolor="#000000"
     borderopacity="0.25"
     inkscape:showpageshadow="2"
     inkscape:pageopacity="0.0"
     inkscape:pagecheckerboard="0"
     inkscape:deskcolor="#d1d1d1"
     inkscape:zoom="1.9707031"
     inkscape:cx="180.8999"
     inkscape:cy="256"
     inkscape:window-width="1200"
     inkscape:window-height="1186"
     inkscape:window-x="1360"
     inkscape:window-y="79"
     inkscape:window-maximized="0"
     inkscape:current-layer="svg21" />
  <path
     d="M0 0 C0.91817505 0.00681793 1.8363501 0.01363586 2.78234863 0.0206604 C26.67422209 0.20497748 51.97002434 2.01600487 74.12109375 11.8359375 C79.68223113 13.32019254 85.35223034 10.48413584 90.5625 8.625 C97.11554729 6.36399116 103.65031999 4.5383487 110.4375 3.125 C111.19764404 2.96604248 111.95778809 2.80708496 112.7409668 2.64331055 C120.76357499 1.0468633 128.72311096 0.28398029 136.8984375 0.234375 C137.67806351 0.22736069 138.45768951 0.22034637 139.26094055 0.21311951 C141.75735334 0.19574049 144.25352898 0.18926904 146.75 0.1875 C147.60292633 0.18682526 148.45585266 0.18615051 149.33462524 0.18545532 C161.59187156 0.20088304 173.41340768 0.52328158 185.375 3.4375 C186.17905273 3.62505859 186.98310547 3.81261719 187.81152344 4.00585938 C196.17366754 5.98056517 204.44753558 7.97376779 212.171875 11.8359375 C218.10060212 13.45477434 224.29346394 10.55394374 229.875 8.625 C249.71270378 2.05854023 270.32421739 0.22350986 291.09716797 0.08740234 C292.94918343 0.07079964 294.80113371 0.04345313 296.65283203 0.00537109 C309.28940952 -0.25197022 318.22830014 0.13581268 328.25 8.5625 C333.80699158 14.60556413 335.69068746 22.01925191 335.53735352 30.05126953 C335.26747978 34.01780465 334.50418202 37.81647469 333.625 41.6875 C333.46773438 42.46351562 333.31046875 43.23953125 333.1484375 44.0390625 C332.11448105 48.69982002 330.98577307 52.08649478 327.375 55.4375 C324.625 56.25 324.625 56.25 322.375 56.4375 C321.67353686 58.66231229 320.98934046 60.89257368 320.3125 63.125 C319.92964844 64.36636719 319.54679687 65.60773438 319.15234375 66.88671875 C318.40065157 70.32032774 318.24478282 72.15336107 319.375 75.4375 C320.035 76.0975 320.695 76.7575 321.375 77.4375 C322.10340741 84.34962135 320.20073539 89.38889913 317.5 95.6875 C317.13519531 96.57179688 316.77039063 97.45609375 316.39453125 98.3671875 C313.77258527 104.67892654 313.77258527 104.67892654 312.24511719 107.59326172 C311.21040147 109.39934078 311.21040147 109.39934078 311.5078125 111.4296875 C312.64224396 114.05625403 314.21852273 115.54548164 316.25 117.5625 C330.36018855 132.83919062 345.99386299 160.09382763 346.375 181.4375 C345.40532929 187.06159012 343.40184319 190.41065681 339.375 194.4375 C334.43669381 197.80452695 330.13389634 197.78303378 324.375 197.4375 C324.61476563 198.71173828 324.61476563 198.71173828 324.859375 200.01171875 C326.95677248 213.94670052 325.81842199 233.00698528 318.375 245.4375 C315.30603419 248.90220087 312.03788853 251.17374723 307.32421875 251.640625 C302.2129051 251.74655896 298.78360768 251.30822128 294.375 248.4375 C293.67375 247.695 292.9725 246.9525 292.25 246.1875 C290.55747123 244.23628129 290.55747123 244.23628129 288.375 244.3125 C285.40716643 245.98190638 284.18333793 248.61197199 282.375 251.4375 C282.82230469 252.23929688 283.26960938 253.04109375 283.73046875 253.8671875 C290.78425538 267.13251759 298.69590688 286.06417183 294.60546875 301.3046875 C294.25397297 306.08264708 296.4759295 309.25189147 298.8125 313.3125 C299.4631543 314.488125 299.4631543 314.488125 300.12695312 315.6875 C301.19527902 317.61283457 302.27796554 319.52842467 303.375 321.4375 C303.94154297 320.49003906 303.94154297 320.49003906 304.51953125 319.5234375 C328.12605205 281.15593063 328.12605205 281.15593063 343.875 276.375 C348.18910732 276.45203763 350.50924534 277.57896411 354.375 279.4375 C355.365 279.4375 356.355 279.4375 357.375 279.4375 C358.81584659 277.93350745 358.81584659 277.93350745 360.08984375 275.87890625 C360.60546875 275.10812744 361.12109375 274.33734863 361.65234375 273.54321289 C362.20019531 272.70395264 362.74804688 271.86469238 363.3125 271 C364.47692332 269.25978647 365.64230962 267.52021697 366.80859375 265.78125 C367.4001123 264.89308594 367.99163086 264.00492187 368.60107422 263.08984375 C371.31645907 259.02984636 374.08245097 255.00719973 376.875 251 C377.35445068 250.2975415 377.83390137 249.59508301 378.32788086 248.87133789 C384.47746418 240.06200851 384.47746418 240.06200851 389.83984375 238.90625 C396.67874675 238.99268163 400.44321412 240.50571412 405.375 245.4375 C405.75197021 244.9748877 406.12894043 244.51227539 406.51733398 244.03564453 C428.01038139 217.69692758 428.01038139 217.69692758 432.546875 217.19921875 C438.35294679 217.03207426 441.86354613 217.37719152 446.375 221.4375 C449.04627562 225.83114351 448.71641385 229.9929342 448.6875 235 C448.68556641 236.37901489 448.68556641 236.37901489 448.68359375 237.78588867 C448.55514437 247.17312979 447.14163224 256.23629039 445.375 265.4375 C447.34847005 265.38053385 449.3219401 265.32356771 451.29541016 265.26660156 C454.76623081 265.55182984 456.79381819 267.22505845 459.375 269.4375 C462.14552293 273.93308785 461.90708658 278.31161116 461.375 283.4375 C460.4939285 287.09996648 459.23714001 290.5538627 457.875 294.0625 C457.5140625 295.0210791 457.153125 295.9796582 456.78125 296.96728516 C453.79493752 304.72729071 450.3030069 312.12469876 446.41015625 319.46386719 C444.50703064 323.09237365 442.69849629 326.76852778 440.875 330.4375 C440.19828988 331.79185321 439.52124308 333.14603828 438.84375 334.5 C438.3590625 335.469375 437.874375 336.43875 437.375 337.4375 C437.973125 337.685 438.57125 337.9325 439.1875 338.1875 C441.75029374 339.65195356 442.86928563 340.90681139 444.375 343.4375 C445.7354182 348.58267141 445.0993033 352.95161308 442.78125 357.70703125 C440.52638737 361.43657943 437.96322159 364.93504446 435.375 368.4375 C434.42555043 369.75634428 433.476336 371.07535786 432.52734375 372.39453125 C424.80781889 382.9981189 416.65770332 393.3409245 407.25 402.50390625 C406.55495361 403.18122803 405.85990723 403.8585498 405.14379883 404.55639648 C403.77850765 405.87236101 402.40102137 407.17581386 401.01049805 408.46508789 C400.08297729 409.35248657 400.08297729 409.35248657 399.13671875 410.2578125 C398.57944092 410.77617676 398.02216309 411.29454102 397.44799805 411.82861328 C396.14083573 413.40766413 396.14083573 413.40766413 396.63989258 415.51123047 C397.35420001 417.47833477 397.35420001 417.47833477 398.375 419.4375 C398.88886138 424.12122015 398.94568024 428.16643946 397 432.5 C381.79615752 449.51382373 361.11043921 463.21256575 341.375 474.4375 C340.74319824 474.80198242 340.11139648 475.16646484 339.46044922 475.54199219 C311.47152799 491.56192032 278.28938193 503.01948623 245.74121094 502.79614258 C239.8445643 502.9001185 237.64891676 504.42574932 233.375 508.4375 C230.99609375 509.546875 230.99609375 509.546875 228.8125 510.1875 C228.08933594 510.40921875 227.36617188 510.6309375 226.62109375 510.859375 C222.13542535 512.01394704 218.02289684 512.56470307 213.38095093 512.57794189 C211.57702881 512.58650711 211.57702881 512.58650711 209.73666382 512.59524536 C208.42541534 512.59636322 207.11416687 512.59748108 205.76318359 512.59863281 C204.36159129 512.6032647 202.96000024 512.60828986 201.55841064 512.61367798 C197.75643696 512.62677105 193.95448092 512.63324125 190.15248823 512.63768864 C187.77323262 512.64062525 185.39398176 512.64473123 183.01472855 512.64919281 C175.55937517 512.66286156 168.10403273 512.67253043 160.64866769 512.6763947 C152.06388149 512.68086963 143.47925497 512.69839381 134.8945173 512.7273953 C128.24546404 512.7490718 121.5964555 512.75910221 114.94736731 512.76043582 C110.98265472 512.76147988 107.01809236 512.76730163 103.05341721 512.78525543 C99.31870743 512.80183903 95.58425912 512.80384228 91.84952545 512.79511642 C89.84183334 512.79398946 87.8341495 512.80762831 85.82650757 512.8218689 C74.04157283 512.76805152 65.02453949 510.53253999 55.234375 504.01171875 C51.4676319 501.93795172 47.55608777 500.64894467 43.5 499.25 C30.20335322 494.48970854 18.48903913 488.24587137 7.375 479.4375 C6.35212891 478.66212891 6.35212891 478.66212891 5.30859375 477.87109375 C-12.65194028 463.3938148 -22.44744539 440.53630983 -25.23828125 418.04296875 C-28.76649544 381.69095583 -20.08467445 342.44997018 -2.4375 310.5625 C0.45246906 305.08429879 0.61202486 301.7246243 -0.3359375 295.69140625 C-1.59601753 281.5069919 4.65843384 265.47221652 11.65234375 253.5234375 C12.62608627 251.42133101 12.62608627 251.42133101 11.58984375 249.27734375 C10.29741948 247.32000667 9.27671771 245.82721679 7.375 244.4375 C3.13988948 244.4375 0.42364934 247.84290482 -2.625 250.4375 C-7.22631537 251.97127179 -11.97279492 252.34224832 -16.62890625 250.75390625 C-22.30349044 247.800181 -24.92755405 243.59404717 -26.85546875 237.6328125 C-27.18672574 236.27897959 -27.50562624 234.9220673 -27.8125 233.5625 C-27.97685547 232.89347656 -28.14121094 232.22445312 -28.31054688 231.53515625 C-30.96235899 220.39110372 -31.72811294 208.74173205 -29.625 197.4375 C-30.4603125 197.52451172 -30.4603125 197.52451172 -31.3125 197.61328125 C-37.71127614 197.99158727 -41.79936324 196.70758942 -46.625 192.4375 C-50.59662204 187.57226301 -51.42570813 183.31048279 -51.19921875 177.0625 C-49.04096478 163.43760417 -42.10251119 150.47236493 -35.625 138.4375 C-34.79548828 136.85195313 -34.79548828 136.85195313 -33.94921875 135.234375 C-30.39527664 128.75415596 -26.20890333 123.26001848 -21.26831055 117.80004883 C-17.76730637 114.12699339 -17.76730637 114.12699339 -16.625 109.4375 C-17.49243289 107.15366446 -18.42714829 105.05951169 -19.5 102.875 C-29.5546663 81.09117775 -46.01840725 43.530601 -39.6875 19.0625 C-37.06243701 11.95141388 -31.63635158 5.87609162 -25.046875 2.171875 C-17.25510759 -1.0432526 -8.26889494 -0.11181906 0 0 Z "
     fill="#020202"
     transform="translate(50.625,-0.4375)"
     id="path1" />
  <path
     d="M0 0 C1.24370361 -0.00410889 2.48740723 -0.00821777 3.76879883 -0.01245117 C5.10498831 -0.00428876 6.44117083 0.00509476 7.77734375 0.015625 C8.45268158 0.01839447 9.12801941 0.02116394 9.82382202 0.02401733 C20.88757158 0.07734333 31.76479884 0.62842401 42.71484375 2.265625 C43.43381836 2.36746094 44.15279297 2.46929688 44.89355469 2.57421875 C57.81957454 4.4430409 71.10354172 7.28219766 82.625 13.6640625 C88.1304094 15.24879717 93.41840864 12.72060427 98.40234375 10.515625 C104.41205378 7.98570497 110.4538541 6.09967155 116.77734375 4.515625 C117.55489014 4.31743164 118.33243652 4.11923828 119.13354492 3.91503906 C152.52870009 -4.14692969 189.21592507 -1.04456383 220.6015625 12.98046875 C224.65797089 14.65494599 226.46212504 14.3810922 230.71484375 13.265625 C232.42985507 12.53102378 234.13732781 11.77873853 235.83984375 11.015625 C257.4830336 1.73614088 282.12440209 0.05958472 305.40234375 -0.171875 C306.0757782 -0.18409088 306.74921265 -0.19630676 307.4430542 -0.20889282 C320.71107258 -0.41276913 320.71107258 -0.41276913 325.71484375 4.265625 C326.33359375 4.8225 326.95234375 5.379375 327.58984375 5.953125 C330.16577429 11.24809332 328.79124744 17.25250876 327.71484375 22.828125 C326.81859292 27.50563846 326.14134108 31.51374576 326.71484375 36.265625 C328.36484375 37.915625 330.01484375 39.565625 331.71484375 41.265625 C330.06484375 47.205625 328.41484375 53.145625 326.71484375 59.265625 C323.74484375 59.925625 320.77484375 60.585625 317.71484375 61.265625 C315.70501974 63.4648296 315.70501974 63.4648296 314.82421875 66.359375 C314.22480469 67.90625 314.22480469 67.90625 313.61328125 69.484375 C313.23429687 70.5671875 312.8553125 71.65 312.46484375 72.765625 C311.67139237 74.88149535 310.87454492 76.99609545 310.07421875 79.109375 C309.69257568 80.14175293 309.31093262 81.17413086 308.91772461 82.23779297 C307.41875528 86.01092421 305.61950061 89.5667074 303.6965332 93.13916016 C302.21010483 96.35895401 302.09186107 98.8046101 302.71484375 102.265625 C304.37011289 104.47265052 306.27585136 105.92572796 308.4453125 107.60546875 C322.42660717 119.01934005 331.35072883 137.95532776 337.40234375 154.640625 C337.65846436 155.33575195 337.91458496 156.03087891 338.1784668 156.74707031 C339.49411377 160.61622725 339.96628085 163.33687096 338.71484375 167.265625 C338.07546875 167.100625 337.43609375 166.935625 336.77734375 166.765625 C329.62710718 165.46420936 329.62710718 165.46420936 322.8359375 167.3125 C320.67596499 169.08211603 318.97060085 170.7541108 317.71484375 173.265625 C317.51834017 178.41714735 317.51834017 178.41714735 318.2109375 183.48828125 C318.90245508 187.29966884 318.90637327 191.02429997 318.90234375 194.890625 C318.90113525 196.08788208 318.90113525 196.08788208 318.89990234 197.30932617 C318.81641 205.40071656 317.87220529 212.77020789 314.71484375 220.265625 C312.17313171 219.09252714 309.98600631 217.7747753 307.65234375 216.203125 C303.26381923 213.30856628 298.90643737 212.3161557 293.71484375 213.265625 C288.01032033 215.98778354 284.19782523 219.50894161 279.90234375 224.078125 C274.56434598 229.57079617 269.28298838 234.26040568 262.71484375 238.265625 C261.80605469 238.84570312 260.89726562 239.42578125 259.9609375 240.0234375 C252.25505161 244.76394254 244.20783394 248.22970536 235.71484375 251.265625 C235.00473145 251.52230957 234.29461914 251.77899414 233.56298828 252.04345703 C224.15171975 255.38761516 214.74139033 257.84706167 204.90234375 259.578125 C203.54399414 259.81716553 203.54399414 259.81716553 202.15820312 260.06103516 C191.39166458 261.81863963 180.62587359 262.30335102 169.73828125 262.44140625 C168.87147232 262.45345596 168.00466339 262.46550568 167.11158752 262.47792053 C163.52016861 262.52636074 159.92912528 262.57403058 156.33740234 262.59155273 C153.67880899 262.60697381 151.02152841 262.64705536 148.36328125 262.69140625 C147.55289398 262.68949783 146.74250671 262.68758942 145.90756226 262.68562317 C142.32360559 262.76386976 140.12590127 262.97377337 137.16650391 265.07495117 C135.36581972 267.33181266 135.36581972 267.33181266 135.83984375 270.890625 C136.42225089 274.31104555 136.42225089 274.31104555 138.71484375 276.265625 C140.67453486 276.59134489 140.67453486 276.59134489 142.94799805 276.57202148 C144.27086319 276.59565514 144.27086319 276.59565514 145.62045288 276.61976624 C146.58359406 276.62536057 147.54673523 276.6309549 148.5390625 276.63671875 C149.54039215 276.64783188 150.5417218 276.65894501 151.57339478 276.6703949 C154.84986821 276.69768017 158.12576115 276.70377882 161.40234375 276.703125 C162.51419037 276.7041925 163.62603699 276.70526001 164.77157593 276.70635986 C190.29332663 276.6708685 214.53956341 273.93700957 238.71484375 265.265625 C239.37790527 265.03262695 240.0409668 264.79962891 240.72412109 264.55957031 C254.16416825 259.76269468 266.71564339 252.9381618 278.71484375 245.265625 C284.14903323 255.15584986 289.1671873 265.74826221 288.71484375 277.265625 C287.40128906 277.17023438 286.08773438 277.07484375 284.734375 276.9765625 C282.99873691 276.86398057 281.26305747 276.75203478 279.52734375 276.640625 C278.66302734 276.57617188 277.79871094 276.51171875 276.90820312 276.4453125 C270.57672293 276.03694936 270.57672293 276.03694936 264.71484375 278.265625 C261.82452867 282.66991465 262.30580171 288.19193049 262.71484375 293.265625 C263.22472315 295.11393783 263.73541236 296.96210456 264.265625 298.8046875 C265.80979953 307.2640784 265.11953023 316.83750609 263.71484375 325.265625 C259.12409353 324.84055553 255.04225869 324.12833475 250.65234375 322.703125 C246.49743528 321.42420218 243.09192024 320.59222862 238.71484375 321.265625 C235.75191398 323.07555948 233.29291286 325.10948678 231.71484375 328.265625 C231.4176738 330.15750891 231.1522351 332.0544178 230.90234375 333.953125 C229.26875788 344.87999935 226.59470429 355.33162319 221.71484375 365.265625 C215.30745876 362.87176892 208.99321745 360.44850858 202.83984375 357.453125 C198.59962697 355.49942047 195.44678228 354.50851484 190.71484375 355.265625 C186.23186348 357.39969548 184.32142788 359.97619958 181.71484375 364.140625 C176.69708488 371.81683531 170.45712348 378.09118707 163.71484375 384.265625 C162.8640625 385.06871094 162.01328125 385.87179687 161.13671875 386.69921875 C158.71484375 388.265625 158.71484375 388.265625 156.296875 388.359375 C152.70412575 386.83748425 150.16772871 384.44134383 147.40234375 381.765625 C146.83056396 381.22317139 146.25878418 380.68071777 145.66967773 380.12182617 C138.94808487 373.67749071 132.94884808 367.1891309 128.234375 359.11328125 C125.51208357 355.80314282 122.58001694 355.36358859 118.4375 354.89453125 C113.70770467 355.36602187 110.32731598 357.03213944 106.15234375 359.203125 C101.32673998 361.67352693 97.20105638 363.71960384 91.71484375 364.265625 C86.54820091 355.03947708 83.96238883 345.24275251 82.77734375 334.765625 C82.08996424 329.29343454 82.08996424 329.29343454 79.65234375 324.453125 C75.57246378 321.41491651 72.76217145 320.80996347 67.71484375 321.265625 C63.74342266 322.14861514 59.86725558 323.18718993 55.97265625 324.35546875 C52.71484375 325.265625 52.71484375 325.265625 49.71484375 325.265625 C49.69007002 321.20883123 49.67194882 317.15206694 49.65991211 313.09521484 C49.65489257 311.71597527 49.64807556 310.33674098 49.6394043 308.95751953 C49.62723455 306.97170317 49.62212742 304.98584751 49.6171875 303 C49.60933228 301.20900879 49.60933228 301.20900879 49.60131836 299.38183594 C49.69608635 296.78050566 49.98893109 294.73780385 50.71484375 292.265625 C50.82817433 290.76860715 50.88949061 289.2668715 50.90234375 287.765625 C50.91652344 287.0128125 50.93070312 286.26 50.9453125 285.484375 C50.68295326 282.95861151 50.06552374 281.40839868 48.71484375 279.265625 C41.40558525 274.392786 32.97832638 276.3173565 24.71484375 277.265625 C25.23272617 265.56148242 29.1938215 255.49309244 34.71484375 245.265625 C38.12584174 247.20554945 41.52622493 249.15337944 44.8984375 251.16015625 C60.59209852 260.41056149 76.86092994 266.65657659 94.52734375 271.078125 C95.42348389 271.30967285 96.31962402 271.5412207 97.24291992 271.77978516 C102.43301863 273.03021297 106.51690733 273.69930419 111.71484375 272.265625 C114.02766962 268.79638619 114.13962961 267.34356925 113.71484375 263.265625 C111.45592466 260.25189636 109.22913453 259.66335127 105.62109375 258.90625 C104.60007568 258.68155029 103.57905762 258.45685059 102.52709961 258.2253418 C100.88753296 257.87403198 100.88753296 257.87403198 99.21484375 257.515625 C72.66480771 251.44699093 49.08337498 241.05736542 30.34106445 220.69433594 C26.2659334 216.38434021 22.46380142 214.00872197 16.52734375 212.83203125 C11.17781512 212.82050209 8.12878878 214.23644704 3.71484375 217.265625 C3.13734375 217.843125 2.55984375 218.420625 1.96484375 219.015625 C1.55234375 219.428125 1.13984375 219.840625 0.71484375 220.265625 C-0.27515625 220.265625 -1.26515625 220.265625 -2.28515625 220.265625 C-5.44310407 207.85940141 -7.45730083 193.85953562 -4.28515625 181.265625 C-3.85740588 174.45809161 -3.85740588 174.45809161 -6.28515625 168.265625 C-12.23982867 165.28828879 -18.93429372 165.67790937 -25.28515625 167.265625 C-26.27459989 163.52314412 -26.292536 161.3211339 -24.9140625 157.7109375 C-24.59115234 156.85612793 -24.26824219 156.00131836 -23.93554688 155.12060547 C-23.57654297 154.21971191 -23.21753906 153.31881836 -22.84765625 152.390625 C-22.48220703 151.45750488 -22.11675781 150.52438477 -21.74023438 149.56298828 C-16.74515859 137.08600866 -10.65179693 125.84593936 -2.28515625 115.265625 C-1.48078125 114.23115234 -1.48078125 114.23115234 -0.66015625 113.17578125 C2.44489874 109.35106508 5.55345736 106.87858855 9.71484375 104.265625 C11.27496458 101.14538334 10.98393115 98.72881472 10.71484375 95.265625 C9.69912877 92.48480008 8.29495897 89.93648313 6.90234375 87.328125 C2.45862817 78.49206106 -0.90138095 69.41702233 -4.09765625 60.078125 C-4.44275742 59.08209763 -4.44275742 59.08209763 -4.79483032 58.06594849 C-8.18491615 48.2483484 -10.91026129 38.37796616 -13.28515625 28.265625 C-13.63562012 26.77977905 -13.63562012 26.77977905 -13.99316406 25.26391602 C-17.08326476 11.732894 -17.08326476 11.732894 -14.3046875 6.375 C-10.15974164 1.12048402 -6.47254732 0.0130957 0 0 Z "
     fill="#B6B6B6"
     transform="translate(41.28515625,14.734375)"
     id="path2"
     style="fill:#ffffff" />
  <path
     d="M0 0 C0.33 0 0.66 0 1 0 C1.69541439 10.75960599 0.91345567 24.17308867 -4 34 C-4.34971507 39.83527064 -4.34971507 39.83527064 -2 45 C1.42094242 47.28062828 2.68187222 47.21925007 6.6875 47.125 C7.68136719 47.10695313 8.67523438 47.08890625 9.69921875 47.0703125 C10.45847656 47.04710937 11.21773438 47.02390625 12 47 C7.50740571 64.79923072 -1.67657124 82.47143246 -12.359375 97.328125 C-14.57110871 100.93009133 -14.34078813 102.91797486 -13.68359375 106.94921875 C-12.63116148 110.10651556 -10.79655124 111.33538617 -8 113 C-7.01 113.66 -6.02 114.32 -5 115 C-15.8752722 132.01403616 -28.74209524 146.76387801 -42.9375 161.0625 C-43.46907715 161.59883057 -44.0006543 162.13516113 -44.54833984 162.68774414 C-46.87553534 165.00498805 -49.17502627 167.1387797 -51.75390625 169.18359375 C-54.20019991 170.97728431 -54.20019991 170.97728431 -56 174 C-56.17534263 176.12270157 -56.17534263 176.12270157 -55.875 178.375 C-55.81054688 179.12523437 -55.74609375 179.87546875 -55.6796875 180.6484375 C-54.78862727 183.73130104 -53.09974734 185.61354017 -51 188 C-64.73171966 201.43022482 -80.24645977 212.64338837 -97 222 C-97.63518555 222.36399902 -98.27037109 222.72799805 -98.92480469 223.10302734 C-107.67547494 228.10186396 -116.62365971 232.23978833 -126 235.9375 C-126.95519531 236.31519531 -127.91039062 236.69289063 -128.89453125 237.08203125 C-134.54905886 239.24894113 -140.05642844 240.83686253 -146 242 C-145.27554687 241.28070313 -144.55109375 240.56140625 -143.8046875 239.8203125 C-131.2301995 227.17577165 -116.0578874 209.58309927 -115.75 190.5625 C-115.75990259 187.16060845 -115.75990259 187.16060845 -117 185 C-122.5758241 183.93650471 -122.5758241 183.93650471 -128 185 C-128.85606515 187.15735064 -128.85606515 187.15735064 -129.375 189.8125 C-132.21810635 201.08286519 -136.76602052 209.91781817 -144 219 C-144.47050781 219.63550781 -144.94101562 220.27101563 -145.42578125 220.92578125 C-154.68031848 232.80107239 -170.22407699 240.5826889 -184 246 C-184.99 246 -185.98 246 -187 246 C-187.09796875 245.443125 -187.1959375 244.88625 -187.296875 244.3125 C-187.52117187 243.1678125 -187.52117187 243.1678125 -187.75 242 C-187.95882812 240.88625 -187.95882812 240.88625 -188.171875 239.75 C-188.83839602 237.07199938 -188.83839602 237.07199938 -190.12451172 235.26928711 C-192.06778816 232.21363376 -193.25900314 230.22020893 -192.484375 226.57080078 C-191.33389726 223.81164866 -190.02698461 221.20270331 -188.625 218.5625 C-187.65927052 216.58957801 -186.69835553 214.61429234 -185.7421875 212.63671875 C-185.26749023 211.67169434 -184.79279297 210.70666992 -184.30371094 209.71240234 C-177.10746884 194.74044547 -169.754408 173.58172047 -171 157 C-172.52018248 154.56304526 -172.52018248 154.56304526 -175 153 C-178.04253508 152.41654524 -178.04253508 152.41654524 -181 153 C-183.92714245 155.23374304 -184.55088288 157.28475854 -185.24609375 160.83203125 C-185.44114502 161.78811279 -185.63619629 162.74419434 -185.8371582 163.72924805 C-186.13432739 165.25545776 -186.13432739 165.25545776 -186.4375 166.8125 C-186.87463731 168.91988843 -187.31473078 171.02666587 -187.7578125 173.1328125 C-188.07733887 174.65890137 -188.07733887 174.65890137 -188.40332031 176.21582031 C-191.98374751 192.92252727 -198.45088552 209.04455992 -206.75 223.95703125 C-208.24477927 227.59588454 -208.43249313 230.09855159 -208 234 C-206.75437258 236.34267803 -206.75437258 236.34267803 -205 238.3125 C-201.9088321 242.57290399 -201.37232641 245.63770936 -201.49609375 250.8359375 C-202.10110084 253.43418502 -202.9384928 254.35079424 -205 256 C-211.67047336 259.43052915 -219.71261598 259.20012801 -227.0625 259.25 C-228.2081543 259.2809375 -228.2081543 259.2809375 -229.37695312 259.3125 C-234.67554739 259.3487607 -238.33880047 258.58373607 -243 256 C-245.92367389 252.90485614 -246.3810428 250.75052858 -246.41650391 246.54467773 C-246.43307037 245.45352158 -246.44963684 244.36236542 -246.46670532 243.23814392 C-246.47158463 241.47864159 -246.47158463 241.47864159 -246.4765625 239.68359375 C-246.49993179 237.87158226 -246.49993179 237.87158226 -246.52377319 236.02296448 C-246.5713346 232.16114959 -246.59906915 228.29951564 -246.625 224.4375 C-246.66147791 220.57204155 -246.7020932 216.70668589 -246.74765015 212.84132385 C-246.77489144 210.43524675 -246.79623628 208.02909441 -246.81118774 205.62290955 C-246.82144989 204.53490555 -246.83171204 203.44690155 -246.84228516 202.32592773 C-246.84878082 201.3675853 -246.85527649 200.40924286 -246.86196899 199.42185974 C-246.90213935 196.85735872 -246.90213935 196.85735872 -248 194 C-249.43410368 193.75045995 -250.87260072 193.52607358 -252.3125 193.3125 C-253.11300781 193.18488281 -253.91351563 193.05726563 -254.73828125 192.92578125 C-257.02310458 192.79259988 -257.02310458 192.79259988 -258.61907959 194.14881897 C-260.54152597 196.725938 -260.36776868 198.49577981 -260.35644531 201.69311523 C-260.35944641 202.86120224 -260.36244751 204.02928925 -260.36553955 205.23277283 C-260.35319275 206.49529373 -260.34084595 207.75781464 -260.328125 209.05859375 C-260.32531525 211.00234642 -260.32531525 211.00234642 -260.32244873 212.98536682 C-260.31784706 215.72840847 -260.30342918 218.47115631 -260.28125 221.21411133 C-260.25299569 224.72577602 -260.2420409 228.23720915 -260.2375679 231.74897671 C-260.23240385 235.10221794 -260.21786411 238.45538003 -260.203125 241.80859375 C-260.19675018 243.69933876 -260.19675018 243.69933876 -260.19024658 245.62828064 C-260.18063904 246.79951981 -260.17103149 247.97075897 -260.16113281 249.17749023 C-260.15430481 250.20768784 -260.14747681 251.23788544 -260.14044189 252.29930115 C-260.07363001 255.24898985 -260.07363001 255.24898985 -259 259 C-275.5 259 -292 259 -309 259 C-308.67 257.68 -308.34 256.36 -308 255 C-307.91330111 252.9836046 -307.88230466 250.96454319 -307.88647461 248.94628906 C-307.88655014 247.72532532 -307.88662567 246.50436157 -307.88670349 245.24639893 C-307.89444542 243.27591583 -307.89444542 243.27591583 -307.90234375 241.265625 C-307.90420979 239.9037074 -307.90563282 238.54178912 -307.90663147 237.17987061 C-307.91044197 233.60258111 -307.92025968 230.02533248 -307.93133545 226.44805908 C-307.94158116 222.79480543 -307.94613585 219.14154514 -307.95117188 215.48828125 C-307.96188331 208.32550224 -307.97894206 201.16275686 -308 194 C-309.43410368 193.75045995 -310.87260072 193.52607358 -312.3125 193.3125 C-313.11300781 193.18488281 -313.91351563 193.05726563 -314.73828125 192.92578125 C-317.03716026 192.80461191 -317.03716026 192.80461191 -318.7689209 194.16105652 C-320.40017321 196.59776494 -320.37821243 198.1862816 -320.38476562 201.1105957 C-320.39487671 202.15210281 -320.40498779 203.19360992 -320.41540527 204.26667786 C-320.41238403 205.39168198 -320.40936279 206.5166861 -320.40625 207.67578125 C-320.42250427 209.4126545 -320.42250427 209.4126545 -320.43908691 211.18461609 C-320.47342857 214.89396728 -320.48895485 218.60301055 -320.5 222.3125 C-320.51456699 227.18389023 -320.54827641 232.0545924 -320.59375 236.92578125 C-320.59072876 238.04471268 -320.58770752 239.1636441 -320.58459473 240.31648254 C-320.63864302 245.93435635 -320.73886415 250.19141736 -324 255 C-330.8361157 261.19522985 -341.37576455 259.34737009 -350 259 C-355.17171866 258.5470446 -359.48563214 257.7126437 -364.1875 255.5 C-366.63930463 252.11820051 -366.6331574 249.57882959 -366.43359375 245.47265625 C-365.8151736 241.94599001 -364.26144263 239.72703376 -362 237 C-359.63247014 233.44870521 -359.25674064 231.10070864 -360 227 C-361.42689651 223.30300668 -363.24298279 219.82942709 -365.0625 216.3125 C-372.96761938 200.37781116 -378.28061432 184.65454917 -381.57983398 167.19360352 C-382.03483948 164.81811 -382.50057251 162.44634248 -382.9921875 160.078125 C-383.14155762 159.34625977 -383.29092773 158.61439453 -383.44482422 157.86035156 C-383.91726943 155.80454244 -383.91726943 155.80454244 -385.8125 153.9375 C-389.55214009 152.33479711 -392.2008246 152.7336082 -396 154 C-397.73214779 174.54519745 -389.85354057 196.498627 -381.33984375 214.83984375 C-380.69245239 216.25136719 -380.69245239 216.25136719 -380.03198242 217.69140625 C-379.19914933 219.47539151 -378.33737936 221.24625187 -377.44262695 223 C-374.68239135 228.86278041 -374.68239135 228.86278041 -375.61816406 232.21337891 C-376.64219639 234.22730916 -377.786783 236.0960875 -379 238 C-379.83946378 240.41616345 -379.83946378 240.41616345 -380.25 242.5 C-380.4975 243.655 -380.745 244.81 -381 246 C-392.94622363 244.33689828 -404.87681043 236.40478058 -414 229 C-414.6290625 228.53335938 -415.258125 228.06671875 -415.90625 227.5859375 C-429.99816031 216.63267994 -437.74421129 198.59409512 -440.59375 181.421875 C-444.8111853 144.00726301 -434.81588781 109.05490682 -418.625 75.6875 C-418.30345947 75.01702637 -417.98191895 74.34655273 -417.65063477 73.65576172 C-415.36264151 69.1208805 -415.36264151 69.1208805 -412 68 C-409.66700175 67.96045766 -407.33291811 67.95598268 -405 68 C-405.01047363 68.95253662 -405.02094727 69.90507324 -405.03173828 70.88647461 C-405.06825181 74.45918948 -405.09101318 78.03188825 -405.10986328 81.60473633 C-405.11985006 83.14382715 -405.13344419 84.68289935 -405.15087891 86.22192383 C-405.55423342 100.58494255 -405.55423342 100.58494255 -401 114 C-397.6969321 116.72017356 -394.80549767 117.51068802 -390.52734375 117.37109375 C-385.88724518 116.68978098 -381.4498903 115.25435589 -376.9765625 113.875 C-374 113 -374 113 -372 113 C-371.87625 113.99515625 -371.7525 114.9903125 -371.625 116.015625 C-370.40253066 124.66726906 -368.34389112 132.61569399 -365.125 140.75 C-364.79757812 141.5946582 -364.47015625 142.43931641 -364.1328125 143.30957031 C-362.09558793 148.24944199 -360.0555741 151.50808196 -356 155 C-355.67 155.33 -355.34 155.66 -355 156 C-347.06573623 157.06932979 -341.08001555 154.84417756 -334 151.5 C-332.14704648 150.65358913 -330.29293676 149.80970335 -328.4375 148.96875 C-327.63183594 148.59169922 -326.82617188 148.21464844 -325.99609375 147.82617188 C-324 147 -324 147 -322 147 C-320.83891728 148.52068314 -319.74826529 150.09521634 -318.6875 151.6875 C-311.02428942 162.45479587 -299.1780106 176.36499621 -286.484375 180.8984375 C-280.64585322 181.59529333 -276.83908115 178.90146327 -272.375 175.4375 C-270.7090307 174.06627357 -269.07036795 172.67088674 -267.4453125 171.25146484 C-266.25486028 170.22067801 -265.02295147 169.23797095 -263.78125 168.26953125 C-257.01528404 162.87616904 -249.8822405 154.764481 -246 147 C-243.06719659 147.64976303 -240.496483 148.59421957 -237.76953125 149.84765625 C-236.96580078 150.20537109 -236.16207031 150.56308594 -235.33398438 150.93164062 C-233.66776344 151.67892329 -232.00615179 152.43657907 -230.34960938 153.20507812 C-224.8676359 155.61679756 -220.00394292 157.11162892 -214 156 C-208.76315426 153.52130735 -206.96763193 150.80930616 -204.875 145.5 C-204.62911133 144.8819751 -204.38322266 144.2639502 -204.12988281 143.62719727 C-203.39750191 141.76010464 -202.69837116 139.88007829 -202 138 C-201.60554687 136.96746094 -201.21109375 135.93492187 -200.8046875 134.87109375 C-198.22467494 127.69483661 -196.92639515 120.55743411 -196 113 C-192.20777629 113.56690717 -188.69499144 114.34381973 -185.0625 115.5625 C-179.55598322 117.23839641 -175.29656019 117.79496314 -169.75 115.875 C-165.10659676 112.70904324 -164.01250736 108.65503239 -162.8125 103.375 C-160.9045748 91.80025376 -161.54247009 79.59027784 -163 68 C-159.17745772 67.50656579 -156.59713027 67.40242065 -153 69 C-149.90404249 73.23598519 -147.95977861 77.79466114 -145.9765625 82.63378906 C-145.0103497 84.97492268 -143.98391967 87.27968363 -142.9375 89.5859375 C-135.43735871 106.36977948 -129.11195566 124.7693906 -127.51953125 143.1640625 C-127.4412207 144.06640625 -127.36291016 144.96875 -127.28222656 145.8984375 C-127.13858722 147.68084208 -127.01344571 149.4648594 -126.90917969 151.25 C-126.6184467 155.11020345 -126.43729885 157.38351075 -124.16015625 160.59375 C-121.92270772 162.3446184 -121.92270772 162.3446184 -118.375 161.875 C-114.95457945 161.29259286 -114.95457945 161.29259286 -113 159 C-111.0760036 142.6460306 -116.02261057 125.97911832 -120.36743164 110.42504883 C-120.5761792 109.62478271 -120.78492676 108.8245166 -121 108 C-121.23299805 107.1546167 -121.46599609 106.3092334 -121.70605469 105.43823242 C-122.05928571 102.5082339 -121.58693601 101.50654326 -120.04296875 99.03125 C-119.37104492 97.93719849 -119.37104492 97.93719849 -118.68554688 96.82104492 C-118.19119141 96.0551001 -117.69683594 95.28915527 -117.1875 94.5 C-116.68412109 93.70118408 -116.18074219 92.90236816 -115.66210938 92.0793457 C-111.16915851 85.05171098 -106.30052527 78.43861415 -101 72 C-100.5246582 71.41782715 -100.04931641 70.8356543 -99.55957031 70.23583984 C-98.08977992 68.44173176 -96.61033349 66.65625533 -95.125 64.875 C-94.44630859 64.05745239 -94.44630859 64.05745239 -93.75390625 63.22338867 C-91.38199779 60.42533323 -89.04595853 58.0542511 -86 56 C-84.824375 56.9590625 -84.824375 56.9590625 -83.625 57.9375 C-80.26568428 60.57696235 -78.86665095 61.19809402 -74.6875 60.875 C-73.92824219 60.83117187 -73.16898437 60.78734375 -72.38671875 60.7421875 C-66.87210494 59.02733214 -63.68192973 53.39726314 -60.5 48.875 C-60.08492188 48.28823486 -59.66984375 47.70146973 -59.2421875 47.09692383 C-56.63226069 43.38951135 -54.07554226 39.64722224 -51.53125 35.89453125 C-50.94537109 35.03166504 -50.35949219 34.16879883 -49.75585938 33.27978516 C-48.59624201 31.56776942 -47.44119624 29.85264718 -46.29101562 28.13427734 C-45.76185547 27.35133301 -45.23269531 26.56838867 -44.6875 25.76171875 C-44.21699219 25.06006592 -43.74648438 24.35841309 -43.26171875 23.63549805 C-42 22 -42 22 -40 21 C-39.5875 21.928125 -39.175 22.85625 -38.75 23.8125 C-37.00775412 26.98587642 -36.19646106 28.40176947 -33 30 C-28.65632399 30.38782822 -25.72226831 30.26471426 -22 28 C-20.55580548 26.50710312 -20.55580548 26.50710312 -19.3359375 24.7265625 C-18.85809814 24.07171875 -18.38025879 23.416875 -17.88793945 22.7421875 C-17.38866943 22.04351562 -16.88939941 21.34484375 -16.375 20.625 C-12.48186517 15.30319736 -8.53799523 10.06342978 -4.3125 5 C-3.10013672 3.5459375 -3.10013672 3.5459375 -1.86328125 2.0625 C-0.94095703 1.0415625 -0.94095703 1.0415625 0 0 Z "
     fill="#C4C4C4"
     transform="translate(482,238)"
     id="path3"
     style="fill:#ffffff" />
  <path
     d="M0 0 C0.67343445 -0.01221588 1.3468689 -0.02443176 2.04071045 -0.03701782 C15.30872883 -0.24089413 15.30872883 -0.24089413 20.3125 4.4375 C20.93125 4.994375 21.55 5.55125 22.1875 6.125 C24.76343054 11.41996832 23.38890369 17.42438376 22.3125 23 C21.41624917 27.67751346 20.73899733 31.68562076 21.3125 36.4375 C22.9625 38.0875 24.6125 39.7375 26.3125 41.4375 C24.6625 47.3775 23.0125 53.3175 21.3125 59.4375 C18.3425 60.0975 15.3725 60.7575 12.3125 61.4375 C10.30267599 63.6367046 10.30267599 63.6367046 9.421875 66.53125 C9.02226562 67.5625 8.62265625 68.59375 8.2109375 69.65625 C7.83195313 70.7390625 7.45296875 71.821875 7.0625 72.9375 C6.26904862 75.05337035 5.47220117 77.16797045 4.671875 79.28125 C4.29023193 80.31362793 3.90858887 81.34600586 3.51538086 82.40966797 C2.01641153 86.18279921 0.21715686 89.7385824 -1.70581055 93.31103516 C-3.19223892 96.53082901 -3.31048268 98.9764851 -2.6875 102.4375 C-1.03223086 104.64452552 0.87350761 106.09760296 3.04296875 107.77734375 C17.02426342 119.19121505 25.94838508 138.12720276 32 154.8125 C32.25612061 155.50762695 32.51224121 156.20275391 32.77612305 156.91894531 C34.09177002 160.78810225 34.5639371 163.50874596 33.3125 167.4375 C32.673125 167.2725 32.03375 167.1075 31.375 166.9375 C24.22476343 165.63608436 24.22476343 165.63608436 17.43359375 167.484375 C15.27362124 169.25399103 13.5682571 170.9259858 12.3125 173.4375 C12.11599642 178.58902235 12.11599642 178.58902235 12.80859375 183.66015625 C13.50011133 187.47154384 13.50402952 191.19617497 13.5 195.0625 C13.49919434 195.86067139 13.49838867 196.65884277 13.49755859 197.48120117 C13.41406625 205.57259156 12.46986154 212.94208289 9.3125 220.4375 C6.77078796 219.26440214 4.58366256 217.9466503 2.25 216.375 C-2.13852452 213.48044128 -6.49590638 212.4880307 -11.6875 213.4375 C-17.39202342 216.15965854 -21.20451852 219.68081661 -25.5 224.25 C-30.83799777 229.74267117 -36.11935537 234.43228068 -42.6875 238.4375 C-44.05068359 239.30761719 -44.05068359 239.30761719 -45.44140625 240.1953125 C-61.98986139 250.37558717 -86.88454163 260.78819683 -106.6875 259.4375 C-126.70809745 249.99644156 -143.0970938 229.9498102 -155.6875 212.4375 C-154.13555246 209.10990077 -152.38128051 206.95169515 -149.6875 204.4375 C-146.97505109 205.58507454 -145.19491425 206.86291497 -142.9375 208.8125 C-138.2785474 212.75559338 -134.03912325 215.51335881 -127.8125 215.3125 C-124.61600357 214.6928444 -124.61600357 214.6928444 -122.6875 212.4375 C-122.44537127 210.45621492 -122.44537127 210.45621492 -122.5625 208.3125 C-122.60375 207.03375 -122.645 205.755 -122.6875 204.4375 C-123.42355469 204.07398438 -124.15960938 203.71046875 -124.91796875 203.3359375 C-132.72408611 199.31429183 -137.74721102 196.00918991 -140.6875 187.4375 C-141.41822968 183.29297974 -141.62299666 179.55814005 -140.6875 175.4375 C-137.33243331 171.7799273 -133.33498931 169.9866631 -128.6875 168.4375 C-127.56596644 166.60675325 -127.56596644 166.60675325 -126.6875 164.4375 C-126.34589844 163.76589844 -126.00429687 163.09429687 -125.65234375 162.40234375 C-125.31332031 161.73332031 -124.97429687 161.06429687 -124.625 160.375 C-124.28339844 159.70339844 -123.94179687 159.03179687 -123.58984375 158.33984375 C-120.976402 152.83012023 -120.44627528 146.12744523 -122.40625 140.30078125 C-126.04410987 133.53846915 -131.43235465 130.58274426 -138.46484375 128.20703125 C-149.07115475 125.67437274 -159.32012345 126.76075124 -168.6875 132.4375 C-172.48463757 135.69337893 -175.34650576 139.91969373 -176.0234375 144.91796875 C-176.1667821 154.85174959 -173.24631088 161.34669486 -166.63671875 168.6875 C-164.60483836 170.51171325 -162.69908841 171.50846983 -160.25 172.6875 C-158.23828125 173.83984375 -158.23828125 173.83984375 -156.6875 175.4375 C-155.30339779 181.21717528 -156.00605228 186.72518358 -158.5625 192.0625 C-160.6875 195.4375 -160.6875 195.4375 -162.6875 197.4375 C-163.6775 197.4375 -164.6675 197.4375 -165.6875 197.4375 C-187.09816119 152.02744705 -193.60926366 104.98252981 -177.6875 56.4375 C-170.63304699 36.89526588 -160.55235965 16.30235965 -145.6875 1.4375 C-124.70472058 -0.36570761 -103.87093656 4.61164231 -84.7734375 13.15625 C-80.73429962 14.83325915 -78.92590835 14.54921367 -74.6875 13.4375 C-72.97248868 12.70289878 -71.26501594 11.95061353 -69.5625 11.1875 C-47.91931015 1.90801588 -23.27794166 0.23145972 0 0 Z "
     fill="#C5C5C5"
     transform="translate(346.6875,14.5625)"
     id="path4"
     style="fill:#ffffff" />
  <path
     d="m 221.79191,89.218461 c 2.06751,1.655953 13.90252,2.215773 16.03268,3.921911 7.55786,0.366105 2.93116,2.010289 12.42185,2.291582 4.4432,0.0324 10.61212,0.580464 15.14502,0.613406 11.74184,0.201757 21.42937,8.65522 30.23168,12.14127 17.13002,9.90896 17.83954,88.5368 17.17889,95.93978 -16.38628,7.08016 3.46487,1.65664 -20.67147,7.78287 -31.20694,7.03418 -60.70466,-59.5035 -95.25702,-63.45046 -32.51472,-5.45835 -88.38998,65.13211 -105.831179,51.80026 C 84.773421,189.62742 71.445406,124.25497 84.088142,114.62754 115.84561,95.556704 155.75154,84.963812 207.91184,92.506911 Z"
     fill="#fdfdfd"
     id="path10"
     style="fill:#808080;stroke-width:2.53948"
     sodipodi:nodetypes="cccccccccccc" />
  <path
     d="M0 0 C0.33 0 0.66 0 1 0 C1.69541439 10.75960599 0.91345567 24.17308867 -4 34 C-4.34971507 39.83527064 -4.34971507 39.83527064 -2 45 C1.42094242 47.28062828 2.68187222 47.21925007 6.6875 47.125 C7.68136719 47.10695313 8.67523438 47.08890625 9.69921875 47.0703125 C10.45847656 47.04710937 11.21773437 47.02390625 12 47 C7.50740571 64.79923072 -1.67657124 82.47143246 -12.359375 97.328125 C-14.57110871 100.93009133 -14.34078813 102.91797486 -13.68359375 106.94921875 C-12.63116148 110.10651556 -10.79655124 111.33538617 -8 113 C-7.01 113.66 -6.02 114.32 -5 115 C-15.8752722 132.01403616 -28.74209524 146.76387801 -42.9375 161.0625 C-43.46907715 161.59883057 -44.0006543 162.13516113 -44.54833984 162.68774414 C-46.87553534 165.00498805 -49.17502627 167.1387797 -51.75390625 169.18359375 C-54.20019991 170.97728431 -54.20019991 170.97728431 -56 174 C-56.17534263 176.12270157 -56.17534263 176.12270157 -55.875 178.375 C-55.81054688 179.12523437 -55.74609375 179.87546875 -55.6796875 180.6484375 C-54.78862727 183.73130104 -53.09974734 185.61354017 -51 188 C-64.73171966 201.43022482 -80.24645977 212.64338837 -97 222 C-97.63518555 222.36399902 -98.27037109 222.72799805 -98.92480469 223.10302734 C-107.67547494 228.10186396 -116.62365971 232.23978833 -126 235.9375 C-126.95519531 236.31519531 -127.91039062 236.69289063 -128.89453125 237.08203125 C-134.54905886 239.24894113 -140.05642844 240.83686253 -146 242 C-144.91332031 240.92105469 -144.91332031 240.92105469 -143.8046875 239.8203125 C-131.2301995 227.17577165 -116.0578874 209.58309927 -115.75 190.5625 C-115.75990259 187.16060845 -115.75990259 187.16060845 -117 185 C-117.99 184.67 -118.98 184.34 -120 184 C-120.00626726 180.58165767 -119.94666505 177.16752695 -119.875 173.75 C-119.87757813 172.78191406 -119.88015625 171.81382812 -119.8828125 170.81640625 C-119.80744275 168.08425271 -119.68229937 165.64859305 -119 163 C-115.9765625 160.65625 -115.9765625 160.65625 -113 159 C-112.1994894 156.51843405 -112.1994894 156.51843405 -112.5 153.75 C-112.58894531 152.14318359 -112.58894531 152.14318359 -112.6796875 150.50390625 C-112.78539062 149.34761719 -112.89109375 148.19132813 -113 147 C-113.08507812 145.83339844 -113.17015625 144.66679687 -113.2578125 143.46484375 C-114.35830695 132.14379976 -117.31355504 121.35765299 -120.36743164 110.42504883 C-120.68055298 109.22464966 -120.68055298 109.22464966 -121 108 C-121.34949707 106.73192505 -121.34949707 106.73192505 -121.70605469 105.43823242 C-122.05928571 102.5082339 -121.58693601 101.50654326 -120.04296875 99.03125 C-119.37104492 97.93719849 -119.37104492 97.93719849 -118.68554688 96.82104492 C-118.19119141 96.0551001 -117.69683594 95.28915527 -117.1875 94.5 C-116.68412109 93.70118408 -116.18074219 92.90236816 -115.66210938 92.0793457 C-111.16915851 85.05171098 -106.30052527 78.43861415 -101 72 C-100.5246582 71.41782715 -100.04931641 70.8356543 -99.55957031 70.23583984 C-98.08977992 68.44173176 -96.61033349 66.65625533 -95.125 64.875 C-94.67253906 64.32996826 -94.22007812 63.78493652 -93.75390625 63.22338867 C-91.38199779 60.42533323 -89.04595853 58.0542511 -86 56 C-85.21625 56.639375 -84.4325 57.27875 -83.625 57.9375 C-80.26568428 60.57696235 -78.86665095 61.19809402 -74.6875 60.875 C-73.92824219 60.83117187 -73.16898437 60.78734375 -72.38671875 60.7421875 C-66.87210494 59.02733214 -63.68192973 53.39726314 -60.5 48.875 C-60.08492188 48.28823486 -59.66984375 47.70146973 -59.2421875 47.09692383 C-56.63226069 43.38951135 -54.07554226 39.64722224 -51.53125 35.89453125 C-50.94537109 35.03166504 -50.35949219 34.16879883 -49.75585938 33.27978516 C-48.59624201 31.56776942 -47.44119624 29.85264718 -46.29101562 28.13427734 C-45.76185547 27.35133301 -45.23269531 26.56838867 -44.6875 25.76171875 C-43.98173828 24.7092395 -43.98173828 24.7092395 -43.26171875 23.63549805 C-42 22 -42 22 -40 21 C-39.5875 21.928125 -39.175 22.85625 -38.75 23.8125 C-37.00775412 26.98587642 -36.19646106 28.40176947 -33 30 C-28.65632399 30.38782822 -25.72226831 30.26471426 -22 28 C-20.55580548 26.50710312 -20.55580548 26.50710312 -19.3359375 24.7265625 C-18.85809814 24.07171875 -18.38025879 23.416875 -17.88793945 22.7421875 C-17.38866943 22.04351562 -16.88939941 21.34484375 -16.375 20.625 C-12.48186517 15.30319736 -8.53799523 10.06342978 -4.3125 5 C-3.50425781 4.030625 -2.69601562 3.06125 -1.86328125 2.0625 C-1.24839844 1.381875 -0.63351562 0.70125 0 0 Z "
     fill="#B6B6B6"
     transform="translate(482,238)"
     id="path6"
     style="fill:#ffffff" />
  <path
     d="M0 0 C4.75283528 3.11031133 8.23351683 6.49272894 10 12 C10.94936981 19.61869271 9.73857953 25.35653114 6 32 C5.443125 33.051875 4.88625 34.10375 4.3125 35.1875 C0.72371803 39.55223483 -3.963785 42.4818925 -9 45 C-9.45131618 52.5219364 -9.62217157 58.75627971 -5 65 C-1.68537737 68.31462263 2.13132779 70.18790089 6.328125 72.16796875 C8 73 8 73 9 74 C9.70119522 81.12881806 9.70119522 81.12881806 6.9375 84.5625 C2.97200907 86.50305939 1.24524654 86.20281985 -3 85 C-8.56196991 82.50571453 -12.96205898 79.55896567 -17 75 C-19.71244891 76.14757454 -21.49258575 77.42541497 -23.75 79.375 C-28.08298424 83.06241335 -32.59243478 85.62960535 -38.25 86.5 C-41 86 -41 86 -43.375 84.4375 C-45.62340519 81.06489221 -45.56783945 78.97487617 -45 75 C-42.86246616 71.88276315 -40.33243507 70.62924186 -37 69.0625 C-32.47232033 66.90806506 -30.06610053 64.29290003 -27.9375 59.71484375 C-26.25569187 54.84460771 -25.96846691 50.05168601 -27 45 C-28.75340573 43.16937174 -30.42001726 42.35085762 -32.69921875 41.2578125 C-38.64427303 38.00771492 -43.62946039 31.6513874 -45.59375 25.1640625 C-46.77090253 18.89346153 -47.14001705 13.19933488 -43.8125 7.5625 C-33.73588708 -6.1808804 -14.46980273 -7.71088172 0 0 Z "
     fill="#030303"
     transform="translate(216,145)"
     id="path7" />
  <path
     d="M0 0 C0.81984375 0.01699951 1.6396875 0.03399902 2.484375 0.05151367 C33.04380555 1.06763803 33.04380555 1.06763803 42.53515625 8.22265625 C44.25 10.5 44.25 10.5 44.7109375 13.37109375 C42.10420332 31.06595879 18.82910132 52.01753829 6.25 63.5 C3.12139505 65.06430248 0.69397075 64.85627284 -2.75 64.5 C-7.02045897 60.38115496 -8.69417028 55.13733785 -10.6875 49.6875 C-11.03232422 48.75768311 -11.37714844 47.82786621 -11.73242188 46.86987305 C-12.75457143 44.08547078 -13.75676514 41.29483425 -14.75 38.5 C-15.03117676 37.71399414 -15.31235352 36.92798828 -15.60205078 36.11816406 C-21.78410465 18.57838331 -21.78410465 18.57838331 -19.0859375 10.515625 C-15.1424302 2.49144493 -8.55655169 -0.33780553 0 0 Z "
     fill="#030303"
     transform="translate(65.75,30.5)"
     id="path8" />
  <path
     d="M0 0 C1.18964355 -0.03915527 1.18964355 -0.03915527 2.40332031 -0.07910156 C8.1092168 -0.09597578 11.36125136 1.12166444 16.0625 4.375 C20.4856012 9.030896 21.49939972 13.06960736 21.41943359 19.47607422 C20.68746613 25.42093174 18.57758189 31.07045737 16.63745117 36.71362305 C15.87744648 38.93036425 15.14342408 41.15451057 14.41210938 43.38085938 C9.06744081 59.37005919 9.06744081 59.37005919 4.0625 64.375 C0.6543115 64.93143894 -1.84278652 65.07615946 -4.828125 63.1640625 C-6.96062088 61.31763314 -8.9482837 59.37502726 -10.9375 57.375 C-11.7109375 56.64925781 -12.484375 55.92351562 -13.28125 55.17578125 C-23.02123345 45.85190468 -41.73557463 27.4327134 -43.25 13.5 C-42.9375 10.375 -42.9375 10.375 -41.34765625 8.3125 C-31.36833643 0.29022669 -12.19551976 0.23045911 0 0 Z "
     fill="#030302"
     transform="translate(328.9375,30.625)"
     id="path9" />
  <path
     d="M0 0 C0.33 0 0.66 0 1 0 C1.33 5.94 1.66 11.88 2 18 C9.0933484 19.86006639 15.62066389 20.30525616 22.9375 20.25 C24.46793945 20.26160156 24.46793945 20.26160156 26.02929688 20.2734375 C32.61958018 20.25661482 38.5791657 19.48854668 45 18 C45 12.39 45 6.78 45 1 C45.33 1 45.66 1 46 1 C46.01030746 1.7052179 46.02061493 2.41043579 46.03123474 3.13702393 C46.12926898 9.78755443 46.23179179 16.43799888 46.33933926 23.08838272 C46.39447071 26.50729472 46.44787477 29.92621542 46.49731445 33.34521484 C46.55424676 37.27710613 46.61872237 41.20885636 46.68359375 45.140625 C46.70030624 46.36678528 46.71701874 47.59294556 46.73423767 48.85626221 C46.7641555 50.56758331 46.7641555 50.56758331 46.79467773 52.31347656 C46.81799416 53.81905121 46.81799416 53.81905121 46.84178162 55.3550415 C46.933926 58.25752917 46.933926 58.25752917 48 62 C31.5 62 15 62 -2 62 C-1.67 60.68 -1.34 59.36 -1 58 C-0.88653829 56.0760203 -0.82400316 54.14877892 -0.79467773 52.22167969 C-0.7647599 50.48032745 -0.7647599 50.48032745 -0.73423767 48.70379639 C-0.71752518 47.45576233 -0.70081268 46.20772827 -0.68359375 44.921875 C-0.66281265 43.64016418 -0.64203156 42.35845337 -0.62062073 41.03790283 C-0.56555253 37.63823728 -0.51607636 34.23851262 -0.46777344 30.83874512 C-0.41744668 27.36640186 -0.36181907 23.89414395 -0.30664062 20.421875 C-0.19924578 13.61465739 -0.09775973 6.80736261 0 0 Z "
     fill="#A2A2A2"
     transform="translate(175,435)"
     id="path12"
     style="fill:#ffffff" />
  <path
     d="M0 0 C0.33 0 0.66 0 1 0 C1.1959375 1.24910156 1.391875 2.49820312 1.59375 3.78515625 C4.28058268 19.82818273 8.80114296 35.06334276 15.66015625 49.83984375 C16.09175049 50.78085937 16.52334473 51.721875 16.96801758 52.69140625 C17.80085067 54.47539151 18.66262064 56.24625187 19.55737305 58 C22.31760865 63.86278041 22.31760865 63.86278041 21.38183594 67.21337891 C20.35780361 69.22730916 19.213217 71.0960875 18 73 C17.16053622 75.41616345 17.16053622 75.41616345 16.75 77.5 C16.5025 78.655 16.255 79.81 16 81 C15.01 80.67 14.02 80.34 13 80 C11.96484375 77.34375 11.96484375 77.34375 11 74 C10.41412109 72.43765625 10.41412109 72.43765625 9.81640625 70.84375 C1.18991869 47.83978317 0.60879146 24.25019313 0 0 Z "
     fill="#A3A3A3"
     transform="translate(85,403)"
     id="path13"
     style="fill:#ffffff" />
  <path
     d="M0 0 C0.33 0 0.66 0 1 0 C1.22631166 12.86204621 0.86935509 25.26995516 -1 38 C-1.12117188 39.02996094 -1.24234375 40.05992187 -1.3671875 41.12109375 C-2.48571353 49.53286606 -5.30482704 57.29722558 -8.31640625 65.19091797 C-8.91024325 66.76246517 -9.45924099 68.35081432 -10 69.94140625 C-10.495 70.96041016 -10.495 70.96041016 -11 72 C-12.485 72.495 -12.485 72.495 -14 73 C-14.09796875 72.443125 -14.1959375 71.88625 -14.296875 71.3125 C-14.52117187 70.1678125 -14.52117187 70.1678125 -14.75 69 C-14.88921875 68.2575 -15.0284375 67.515 -15.171875 66.75 C-15.83839602 64.07199938 -15.83839602 64.07199938 -17.12451172 62.26928711 C-19.06778816 59.21363376 -20.25900314 57.22020893 -19.484375 53.57080078 C-18.33386345 50.81156756 -17.0277233 48.20241504 -15.625 45.5625 C-14.6614199 43.60413536 -13.70311908 41.64316469 -12.75 39.6796875 C-12.275625 38.71643555 -11.80125 37.75318359 -11.3125 36.76074219 C-5.75977116 25.08100676 -2.67976613 12.59490079 0 0 Z "
     fill="#A4A4A4"
     transform="translate(309,411)"
     id="path14"
     style="fill:#ffffff" />
  <path
     d="M0 0 C-0.56600002 5.67907887 -1.66033696 10.77311113 -3.4375 16.1875 C-3.65470703 16.87263672 -3.87191406 17.55777344 -4.09570312 18.26367188 C-5.26219821 21.90327667 -6.52756904 25.47301421 -8 29 C-14.02406311 24.52056845 -18.39097928 18.88245782 -23 13 C-23.94552734 11.80117188 -23.94552734 11.80117188 -24.91015625 10.578125 C-29 5.27969858 -29 5.27969858 -29 3 C-19.37475437 -0.0718869 -10.05680235 -0.1398937 0 0 Z "
     fill="#F4D0C6"
     transform="translate(335,46)"
     id="path15" />
  <path
     d="M0 0 C10.07596838 -0.465841 19.21174564 0.88905426 29 3 C27.53382412 7.56802776 24.92895795 10.76600538 21.8125 14.3125 C21.07809692 15.1636438 21.07809692 15.1636438 20.32885742 16.03198242 C18.89237346 17.6937509 17.44732418 19.3476724 16 21 C15.2471875 21.86625 14.494375 22.7325 13.71875 23.625 C12.15231525 25.42254808 10.58034999 27.21468995 9 29 C6.65449154 25.48173731 5.33673976 21.8315737 3.9375 17.875 C3.66728027 17.11324463 3.39706055 16.35148926 3.11865234 15.56665039 C1.3237163 10.34284056 0.20175993 5.54839818 0 0 Z "
     fill="#F8C0B2"
     transform="translate(61,46)"
     id="path16" />
  <path
     d="M0 0 C1 1 1 1 1.3125 3.6875 C0.86011512 8.48277971 -1.48538964 11.24305199 -4.5625 14.8125 C-6.92677252 16.76559469 -9.25956988 17.0349421 -12.25 17.4375 C-17.21590295 16.85814466 -19.76761739 14.71851931 -23 11 C-24.76895565 8.07863024 -25 6.99354386 -25 3.4375 C-24 0 -24 0 -21.625 -1.9375 C-13.96034429 -4.18403702 -7.01854555 -3.81442693 0 0 Z "
     fill="#F8A59D"
     transform="translate(210,159)"
     id="path17" />
  <path
     d="M0 0 C2.1875 1.46875 2.1875 1.46875 4 4 C4.58790498 7.01188241 4.55865552 9.940137 4.5 13 C4.51546875 13.80695313 4.5309375 14.61390625 4.546875 15.4453125 C4.52159961 19.2745336 4.46201833 21.35576323 2.1875 24.52734375 C-1.05723844 26.71174802 -3.18603091 26.61295932 -7 26 C-10.05774483 23.20434759 -11.24449963 20.98859774 -11.53125 16.93359375 C-11.54179492 15.43489673 -11.53086866 13.93591619 -11.5 12.4375 C-11.51546875 11.68275391 -11.5309375 10.92800781 -11.546875 10.15039062 C-11.52176226 6.58752119 -11.30426908 4.41902573 -9.1875 1.50390625 C-5.97613157 -0.70390955 -3.80211705 -0.54315958 0 0 Z "
     fill="#030303"
     transform="translate(139,116)"
     id="path18" />
  <path
     d="M0 0 C2.1875 1.50390625 2.1875 1.50390625 4 4 C4.40091196 6.96851721 4.56058386 9.48151228 4.5 12.4375 C4.51546875 13.18837891 4.5309375 13.93925781 4.546875 14.71289062 C4.51960177 18.58909805 4.23712227 20.60803279 2.1875 23.99609375 C0 26 0 26 -3.5 26.625 C-7 26 -7 26 -9.1875 23.99609375 C-11.59596386 20.01486146 -11.59397584 16.99924402 -11.5 12.4375 C-11.51546875 11.68275391 -11.5309375 10.92800781 -11.546875 10.15039062 C-11.52176226 6.58752119 -11.30426908 4.41902573 -9.1875 1.50390625 C-5.97613157 -0.70390955 -3.80211705 -0.54315958 0 0 Z "
     fill="#020202"
     transform="translate(264,116)"
     id="path19" />
  <path
     d="M0 0 C0.33 0 0.66 0 1 0 C1.33865141 2.99948391 1.67105073 5.99944926 2 9 C2.09539062 9.83917969 2.19078125 10.67835938 2.2890625 11.54296875 C2.85214909 16.73140945 3.09664316 21.78126961 3 27 C0.525 26.01 0.525 26.01 -2 25 C-1.34 16.75 -0.68 8.5 0 0 Z "
     fill="#ACACAC"
     transform="translate(307,365)"
     id="path20"
     style="fill:#ffffff" />
  <path
     d="M0 0 C0.33 0 0.66 0 1 0 C1.33559955 2.60389297 1.66856858 5.2080761 2 7.8125 C2.09539062 8.55048828 2.19078125 9.28847656 2.2890625 10.04882812 C2.66984677 13.05430395 3 15.96714441 3 19 C1.02 19.99 1.02 19.99 -1 21 C-1.09733092 13.90565767 -1.10087193 7.01805857 0 0 Z "
     fill="#A6A6A6"
     transform="translate(88,371)"
     id="path21"
     style="fill:#ffffff" />
  <circle
     id="path24"
     style="fill:#b6b6b6;stroke:#000000"
     cx="432.33301"
     cy="118.23191"
     r="0.25545675" />
  <ellipse
     style="fill:#808080;fill-opacity:1"
     id="path31"
     cx="171.7661"
     cy="94.889992"
     rx="5.3280478"
     ry="26.38652" />
  <ellipse
     style="fill:#808080;fill-opacity:1"
     id="path32"
     cx="207.28642"
     cy="89.054512"
     rx="4.3131814"
     ry="19.536175" />
  <ellipse
     style="fill:#808080;fill-opacity:1"
     id="path33"
     cx="239.00099"
     cy="94.889992"
     rx="5.0743308"
     ry="25.371655" />
  <ellipse
     style="fill:#808080;fill-opacity:1"
     id="path34"
     cx="224.28543"
     cy="87.532211"
     rx="5.0743308"
     ry="31.207136" />
  <ellipse
     style="fill:#808080;fill-opacity:1"
     id="path35"
     cx="186.48166"
     cy="84.233894"
     rx="5.8354807"
     ry="28.923687" />
</svg>
