<?xml version="1.0" encoding="UTF-8" standalone="no"?>
<svg
   version="1.1"
   width="512"
   height="512"
   id="svg11"
   sodipodi:docname="rage.svg"
   inkscape:version="1.4 (e7c3feb1, 2024-10-09)"
   xmlns:inkscape="http://www.inkscape.org/namespaces/inkscape"
   xmlns:sodipodi="http://sodipodi.sourceforge.net/DTD/sodipodi-0.dtd"
   xmlns="http://www.w3.org/2000/svg"
   xmlns:svg="http://www.w3.org/2000/svg">
  <defs
     id="defs11" />
  <sodipodi:namedview
     id="namedview11"
     pagecolor="#ffffff"
     bordercolor="#000000"
     borderopacity="0.25"
     inkscape:showpageshadow="2"
     inkscape:pageopacity="0.0"
     inkscape:pagecheckerboard="0"
     inkscape:deskcolor="#d1d1d1"
     inkscape:zoom="1.9707031"
     inkscape:cx="200.18236"
     inkscape:cy="256"
     inkscape:window-width="2560"
     inkscape:window-height="1440"
     inkscape:window-x="0"
     inkscape:window-y="0"
     inkscape:window-maximized="0"
     inkscape:current-layer="svg11" />
  <path
     d="m 289.56239,201.49492 c 2.9413,2.32447 19.77814,3.11028 22.80858,5.50519 10.75203,0.51392 4.16995,2.82186 17.67169,3.2167 6.32103,0.0455 15.09712,0.8148 21.54577,0.86103 16.70428,0.28323 30.48606,12.14934 43.00849,17.04271 24.36969,13.90921 25.37908,124.27912 24.43921,134.6707 -23.31161,9.9384 4.92924,2.32542 -29.40786,10.92479 -44.39593,9.87388 -86.36027,-83.52506 -135.5155,-89.06542 -46.25643,-7.66188 -125.74625,91.42597 -150.55863,72.71205 C 94.635779,342.439 75.674935,250.67568 93.660879,237.16164 138.84,210.39191 195.61137,195.52267 269.81618,206.11092 Z"
     fill="#fdfdfd"
     id="path10-5"
     style="fill:#808080;stroke-width:3.58863"
     sodipodi:nodetypes="cccccccccccc" />
  <ellipse
     style="fill:#808080;fill-opacity:1;stroke-width:1.41313"
     id="path31"
     cx="218.39415"
     cy="209.45607"
     rx="7.5798411"
     ry="37.038765" />
  <ellipse
     style="fill:#808080;fill-opacity:1;stroke-width:1.41313"
     id="path32"
     cx="268.92648"
     cy="201.2648"
     rx="6.1360621"
     ry="27.422932" />
  <ellipse
     style="fill:#808080;fill-opacity:1;stroke-width:1.41313"
     id="path33"
     cx="314.04453"
     cy="209.45607"
     rx="7.2188959"
     ry="35.614197" />
  <ellipse
     style="fill:#808080;fill-opacity:1;stroke-width:1.41313"
     id="path34"
     cx="293.10974"
     cy="199.12794"
     rx="7.2188959"
     ry="43.805458" />
  <ellipse
     style="fill:#808080;fill-opacity:1;stroke-width:1.41313"
     id="path35"
     cx="239.32896"
     cy="194.49812"
     rx="8.3017311"
     ry="40.600189" />
  <path
     d="M0 0 C1.14927979 0.13164551 2.29855957 0.26329102 3.48266602 0.39892578 C52.24446049 6.24098855 105.49639089 17.65849852 140.5 54.8125 C141.05042969 54.65394531 141.60085937 54.49539062 142.16796875 54.33203125 C182.82619887 42.92251241 228.08823015 37.78584905 268.328125 54.30859375 C270.50419849 55.01149354 270.50419849 55.01149354 272.58984375 54.125 C274.64583973 52.71229111 276.13956042 51.22484813 277.8125 49.375 C314.9212555 11.72252647 381.30988039 -0.24276431 432.0625 -1.5 C441.26744864 -1.39093663 448.05440835 1.59336128 454.7421875 7.875 C463.13280472 17.12332476 463.04708976 26.4872088 462.67919922 38.41162109 C459.7769501 93.49109005 445.02189299 154.08741845 403.5 192.8125 C402.19529458 193.84957354 400.87821084 194.87531663 399.5 195.8125 C400.96159229 200.13338211 403.26670541 203.45505749 406.0625 207 C406.7263269 207.8521106 406.7263269 207.8521106 407.40356445 208.72143555 C410.90364378 213.16593122 414.59964023 217.40182696 418.43359375 221.5625 C420.25613486 223.5469682 422.00783558 225.57035892 423.75 227.625 C431.80987242 236.86849004 440.75801811 245.95808702 450.55078125 253.36328125 C456.96074356 258.42123644 461.43631686 264.61970073 462.84570312 272.82519531 C464.22553242 285.41178944 461.02194801 294.17691428 453.16015625 304.08203125 C450.76341263 307.0375288 448.31774995 309.94443547 445.83984375 312.83203125 C439.19139219 320.15497385 439.19139219 320.15497385 437.5 329.51171875 C437.5 338.0460843 434.46262665 345.77595649 428.5 351.8125 C423.49246338 356.41151698 418.12679763 360.23577015 412.4453125 363.953125 C411.58549774 364.52021179 410.72568298 365.08729858 409.83981323 365.67156982 C408.02431918 366.86722969 406.20724188 368.06048864 404.38867188 369.25146484 C401.66350654 371.03726665 398.94470758 372.83244241 396.2265625 374.62890625 C385.50274054 381.69118413 374.6616682 388.46359556 363.5 394.8125 C362.60410156 395.32329102 361.70820313 395.83408203 360.78515625 396.36035156 C314.37217415 422.35724249 260.57878897 435.01755286 207.5625 435.0625 C206.83377686 435.06317474 206.10505371 435.06384949 205.35424805 435.06454468 C137.40986471 434.9661412 74.82102227 412.96348045 18.5 375.8125 C17.21387667 374.97011457 15.92757134 374.12800697 14.64111328 373.28613281 C11.15190785 370.99967124 7.67439117 368.6962111 4.20333862 366.3822937 C2.83613082 365.47296992 1.46633794 364.56751892 0.09378052 363.66629028 C-19.95545439 350.47583391 -19.95545439 350.47583391 -23 339.3125 C-23.30808594 338.19746094 -23.61617187 337.08242188 -23.93359375 335.93359375 C-24.44705636 333.10423772 -24.44380655 331.17995364 -24.0625 328.375 C-23.70896939 321.70668133 -29.88432978 316.38131941 -33.96435547 311.61767578 C-43.79023744 300.06718749 -50.78239711 290.83512083 -49.984375 275.02734375 C-48.7737897 261.64797898 -39.09681244 253.95587154 -29.5 245.8125 C-18.46809111 236.32621758 -8.51953469 226.24827702 0.5 214.8125 C2.1018799 212.87310893 3.70603482 210.93559463 5.3125 209 C8.27522508 205.38464667 11.03299336 201.78116286 13.5 197.8125 C12.11308541 194.5903752 10.57563327 192.77895599 7.875 190.5625 C-33.69288537 154.95416808 -44.80219031 93.69445084 -49.5 41.8125 C-50.43708766 29.32414678 -51.06292344 18.96836603 -42.890625 8.8125 C-31.34524599 -3.898009 -15.65851556 -1.81990455 0 0 Z M-30.8125 19.8125 C-35.42373939 25.27767262 -33.92204597 34.07011431 -33.5 40.8125 C-29.13694183 89.04734959 -18.88266937 147.93531597 20.5 180.8125 C21.49 180.8125 22.48 180.8125 23.5 180.8125 C25.03244568 177.07816782 26.56230042 173.34278559 28.08984375 169.60644531 C28.60900286 168.33760495 29.1288482 167.06904512 29.64941406 165.80078125 C30.40092874 163.9695041 31.14970775 162.13710505 31.8984375 160.3046875 C32.57398682 158.65509033 32.57398682 158.65509033 33.26318359 156.97216797 C33.67133301 155.92947754 34.07948242 154.88678711 34.5 153.8125 C34.9326416 152.75047363 35.3652832 151.68844727 35.81103516 150.59423828 C36.15207275 149.21727783 36.15207275 149.21727783 36.5 147.8125 C34.30991391 144.94904694 34.30991391 144.94904694 32.41015625 143.0234375 C16.91632017 125.08987672 11.19172903 97.86441933 6.625 75.375 C6.40956543 74.31474609 6.19413086 73.25449219 5.97216797 72.16210938 C3.51336192 59.50750855 3.51336192 59.50750855 5.7421875 55.6784668 C7.5 53.8125 7.5 53.8125 9.56298828 53.34716797 C16.32112812 53.58125808 22.75931606 54.55457795 29.375 55.9375 C31.00985352 56.27418701 31.00985352 56.27418701 32.67773438 56.61767578 C54.06257855 61.15867816 74.15893933 67.7807642 92.5 79.8125 C93.16 80.1425 93.82 80.4725 94.5 80.8125 C96.1768527 80.02476097 96.1768527 80.02476097 97.95703125 78.75 C98.6519165 78.2856958 99.34680176 77.8213916 100.06274414 77.34301758 C100.80516357 76.83794678 101.54758301 76.33287598 102.3125 75.8125 C109.51259697 71.02036469 116.79420211 66.73910658 124.5 62.8125 C98.32374498 29.39189396 42.3945572 21.47856838 3.37109375 16.40576172 C-14.74687572 13.34697036 -14.74687572 13.34697036 -30.8125 19.8125 Z M288.5 61.8125 C291.21019041 65.03891716 294.7487198 66.63549433 298.4375 68.5 C305.47996464 72.14458075 311.99877192 76.26042968 318.5 80.8125 C319.08523438 80.4 319.67046875 79.9875 320.2734375 79.5625 C342.52270276 64.59602727 373.86911585 54.28999891 400.6875 53.5 C401.52667969 53.46261719 402.36585938 53.42523438 403.23046875 53.38671875 C405.5 53.8125 405.5 53.8125 407.15112305 55.49902344 C411.27034767 62.56395964 406.58521301 75.21660506 404.875 82.75 C404.47740479 84.50727417 404.47740479 84.50727417 404.07177734 86.30004883 C399.35455467 106.52634441 392.36603408 133.08996387 376.5 147.8125 C377.86944838 152.05499519 379.41223603 156.17958799 381.1015625 160.3046875 C381.59140625 161.50351563 382.08125 162.70234375 382.5859375 163.9375 C383.09891628 165.18751726 383.61193764 166.43751704 384.125 167.6875 C384.64601043 168.96086505 385.16684543 170.2343019 385.6875 171.5078125 C386.95661139 174.61008479 388.22750049 177.71161627 389.5 180.8125 C407.04940389 174.24034377 418.1994064 149.73469358 425.5 133.8125 C439.14560175 102.13663938 450.26832392 59.61884676 446.5 24.8125 C444.51864917 20.73057666 442.21534693 18.41324285 438.5 15.8125 C396.62753046 1.85501015 319.31340077 33.55952508 288.5 61.8125 Z M84.5 109.8125 C83.2625 110.96878906 83.2625 110.96878906 82 112.1484375 C71.42624016 122.35872435 62.99612135 134.21954635 55.5 146.8125 C55.13551758 147.42480469 54.77103516 148.03710938 54.39550781 148.66796875 C49.09487663 157.74407157 45.1170887 167.09904258 41.4375 176.9375 C30.53999201 206.05307477 12.07452777 228.25680367 -9.6875 250.125 C-10.34049072 250.78266357 -10.99348145 251.44032715 -11.66625977 252.11791992 C-16.92770557 257.36214332 -22.31465771 262.47658232 -28.3125 266.875 C-31.69397189 269.87001796 -33.21867801 272.70601583 -33.8203125 277.2109375 C-34.21380043 285.94636961 -29.58391191 290.84202468 -24.375 297.375 C-23.40600097 298.60397036 -22.43725717 299.83314199 -21.46875 301.0625 C-19.52026875 303.52886705 -17.55987377 305.98518802 -15.59375 308.4375 C-14.68718305 309.58308258 -13.78092043 310.72890609 -12.875 311.875 C-12.05773437 312.89722656 -11.24046875 313.91945313 -10.3984375 314.97265625 C-7.56802073 319.20663361 -7.30743572 321.63785787 -8.125 326.625 C-8.78128652 331.33429923 -7.86881034 334.71965374 -5.5 338.8125 C-0.87707427 343.65029087 4.92018793 347.27063734 10.484375 350.91796875 C11.33944641 351.48268387 12.19451782 352.04739899 13.07550049 352.62922668 C14.88257673 353.82072639 16.69126278 355.00978783 18.50146484 356.1965332 C21.20518138 357.97059201 23.90171477 359.75517061 26.59765625 361.54101562 C42.09115107 371.7595815 57.86054062 381.43121966 74.625 389.4375 C75.75534668 389.97890625 76.88569336 390.5203125 78.05029297 391.078125 C89.58220423 396.49057216 101.40015646 400.85674012 113.5 404.8125 C114.27456543 405.06966797 115.04913086 405.32683594 115.84716797 405.59179688 C144.58355268 415.02041299 175.33962719 419.03721206 205.5 419.0625 C206.23444336 419.06317474 206.96888672 419.06384949 207.72558594 419.06454468 C240.10223651 419.01790124 271.72261191 413.81842532 302.5 403.8125 C303.41700684 403.51504883 304.33401367 403.21759766 305.27880859 402.91113281 C334.35913378 393.29909036 361.05791363 378.48700828 386.36279297 361.42480469 C389.15235234 359.54405881 391.94858729 357.67358737 394.74609375 355.8046875 C396.55247183 354.5943296 398.35847536 353.38341248 400.1640625 352.171875 C400.98500397 351.62174744 401.80594543 351.07161987 402.65176392 350.50482178 C414.74433539 343.19520736 414.74433539 343.19520736 421.25 331.4375 C421.64612282 327.80760199 421.64612282 327.80760199 420.875 324.25 C420.27724893 318.77061522 423.00766109 315.2976225 426.3203125 311.1484375 C427.41694759 309.82402951 428.51872753 308.50386859 429.625 307.1875 C441.97184773 293.87313615 441.97184773 293.87313615 446.76171875 277.3984375 C445.89234783 268.8085338 438.62832051 264.02665115 432.5 258.8125 C419.80654879 247.99004384 407.53732538 236.17030164 397.5 222.8125 C397.07702637 222.2659375 396.65405273 221.719375 396.21826172 221.15625 C386.02075952 207.97860635 378.18786654 194.43717622 372.27880859 178.84765625 C362.4941374 153.27868476 349.52207583 131.56060926 330.5 111.8125 C329.81035156 111.0596875 329.12070312 110.306875 328.41015625 109.53125 C299.34787876 78.7397391 254.35953196 61.15527439 212.5 59.8125 C211.60667969 59.77253906 210.71335937 59.73257813 209.79296875 59.69140625 C162.47686766 58.56640804 118.65124803 77.90242762 84.5 109.8125 Z M21.5 70.8125 C25.36858339 93.18300394 31.49079428 114.91886419 44.5 133.8125 C46.78508996 131.00880807 48.99404004 128.16485011 51.12890625 125.24609375 C60.01687497 113.11179408 69.73508912 102.33819064 80.5 91.8125 C77.20794262 88.02368716 73.42508091 86.00683337 68.9375 83.9375 C67.82507935 83.42086792 67.82507935 83.42086792 66.69018555 82.89379883 C53.30893031 76.86322373 36.34581701 70.31946549 21.5 70.8125 Z M333.5 89.8125 C333.18295727 92.75769843 333.18295727 92.75769843 334.76245117 94.35205078 C335.35002197 94.89845215 335.93759277 95.44485352 336.54296875 96.0078125 C337.19869873 96.63300781 337.85442871 97.25820312 338.5300293 97.90234375 C339.24199463 98.57394531 339.95395996 99.24554688 340.6875 99.9375 C346.49837047 105.57385621 351.80394226 111.35241728 356.6875 117.8125 C357.20272217 118.49328613 357.71794434 119.17407227 358.2487793 119.87548828 C361.58163404 124.37311233 364.60102391 129.02517083 367.5 133.8125 C371.17896087 130.57501443 373.2626485 126.91142814 375.375 122.5625 C375.72159668 121.852146 376.06819336 121.14179199 376.42529297 120.40991211 C383.39907069 105.85307548 391.5 87.12852579 391.5 70.8125 C372.51607172 69.52346783 349.49577461 80.36436742 333.5 89.8125 Z "
     fill="#000000"
     transform="translate(49.5,39.1875)"
     id="path1" />
  <path
     d="m 261,311.6115 c 2.66475,2.8215 3.36375,5.01305 3.8125,8.8125 0.93743,5.33312 3.05275,8.7056 7.1875,12.1875 3.47318,2.2671 6.59756,2.28902 10.6875,2.4375 10.27535,0.61886 18.26839,3.07527 25.5,10.75 5.36107,6.70292 6.27503,14.22055 6.24609,22.57031 0.005,0.90612 0.0105,1.81224 0.0159,2.74582 0.006,1.90763 0.005,3.8153 -0.003,5.72293 -0.008,2.87053 0.0202,5.73904 0.052,8.60937 0.0724,18.60604 -3.20686,35.06313 -16.36133,49.22266 -13.00735,11.81838 -27.77632,17.57483 -45.35547,17.25 C 237.7075,450.6899 223.3469,444.99934 213,433.6115 c -10.08944,-12.80907 -15.31803,-25.58507 -15.30078,-41.96875 -0.004,-0.92035 -0.009,-1.8407 -0.013,-2.78894 -0.006,-1.93282 -0.006,-3.86565 -0.002,-5.79847 0.003,-2.93608 -0.0204,-5.87116 -0.0457,-8.80712 -0.002,-1.88933 -0.003,-3.77865 -0.002,-5.66797 -0.009,-0.86589 -0.0184,-1.73178 -0.0279,-2.6239 0.0716,-9.55375 2.6129,-16.4535 9.20369,-23.39563 6.604,-5.88464 13.5101,-6.93434 22.125,-7.26172 5.71109,-0.3879 8.90178,-0.74577 13.0625,-4.6875 0.72187,-0.66 1.44375,-1.32 2.1875,-2 2.36543,-3.9152 3.01036,-7.781 3.80859,-12.25782 1.00391,-2.74218 1.00391,-2.74218 3.375,-4.61328 3.63203,-1.55966 5.85844,-1.17626 9.62891,-0.1289 z m -6,29 c 0,0.66 0,1.32 0,2 -0.56719,0.27714 -1.13438,0.55429 -1.71875,0.83984 -3.08519,1.56901 -6.06511,3.30941 -9.0625,5.03906 -5.31069,2.6834 -10.85764,2.40433 -16.71094,2.64453 -5.16021,0.70106 -8.28502,2.01278 -11.6521,6.04346 -2.32553,4.30229 -2.42001,7.39752 -2.3518,12.19873 -0.001,0.83344 -0.003,1.66688 -0.004,2.52558 0.002,1.75827 0.0132,3.51656 0.0339,5.27471 0.0288,2.66227 0.0206,5.32252 0.008,7.98487 0.0174,14.25647 1.99488,26.93157 11.9082,37.98047 8.62839,8.17198 18.82485,12.53921 30.73828,12.90625 11.30612,-0.4463 22.9359,-5.12098 30.8125,-13.4375 10.37149,-12.12282 11.67079,-25.01994 11.52148,-40.31372 -0.0217,-2.64439 10e-6,-5.28612 0.0254,-7.93042 -0.003,-1.69858 -0.008,-3.39715 -0.0156,-5.09571 0.008,-0.78133 0.0162,-1.56265 0.0245,-2.36766 -0.0887,-5.19429 -1.12599,-8.17361 -4.55579,-12.29249 -4.2928,-2.80455 -7.68087,-3.34002 -12.75,-3.4375 -8.93733,-0.47138 -16.16173,-3.10999 -23.25,-8.5625 -0.495,-0.99 -0.495,-0.99 -1,-2 -0.66,0 -1.32,0 -2,0 z"
     fill="#000000"
     id="path2" />
  <path
     d="M0 0 C11.1757876 5.97966495 16.5897797 15.70213713 20.2734375 27.5859375 C24.61759877 43.88822013 22.42017729 60.52691711 14.07421875 75.13671875 C5.19999204 88.72381163 -6.64301216 96.54177977 -22 101.3125 C-37.89707577 104.64371747 -54.27179372 101.97009658 -68 93.3125 C-71.58034003 90.53229254 -74.81672665 87.53577858 -78 84.3125 C-78.56332031 83.77109375 -79.12664062 83.2296875 -79.70703125 82.671875 C-86.81502216 75.245056 -91.39721196 65.81410545 -91.75 55.5625 C-91.27505726 46.75779224 -88.83068339 40.80392737 -82.40625 34.8046875 C-78.11929664 31.16116829 -73.67584607 29.04657131 -68.5 26.9375 C-55.04905118 21.13860792 -42.97210172 14.53292144 -31.48925781 5.38549805 C-22.26554536 -1.87944118 -11.2633618 -4.69624916 0 0 Z M-29 25.3125 C-28.23201446 26.9486431 -27.46350041 28.58454174 -26.69140625 30.21875 C-25.34741138 34.28870058 -25.90422098 38.2318996 -27 42.3125 C-28.83012433 45.86337867 -31.191503 47.88987657 -34.75 49.75 C-40.10746964 50.67725436 -44.84487662 50.20265966 -49.875 48.125 C-52.53873668 45.85298931 -53.64941122 43.51126289 -55 40.3125 C-61.40757487 41.4681519 -68.4490275 43.19042829 -73.125 48 C-75.60086328 52.37402512 -76.09810844 55.40656229 -75 60.3125 C-70.10923214 71.78357371 -61.18140115 79.30639404 -50 84.3125 C-39.2370811 88.56048317 -27.38336507 86.74204094 -17 82.3125 C-6.05213314 76.21189557 1.06372636 67.42220815 5.3125 55.6875 C7.96973876 42.76248431 5.92876411 31.31140261 -1 20.25 C-3.016651 17.21954347 -4.58921918 15.64146066 -8 14.3125 C-16.74878518 12.77762541 -24.2006494 18.11347409 -29 25.3125 Z "
     fill="#000000"
     transform="translate(380,218.6875)"
     id="path3" />
  <path
     d="M0 0 C4.55421147 2.62144855 8.59796806 5.90801825 12.69506836 9.17797852 C23.34168532 17.53157319 35.70169589 23.09016639 48.03125 28.4765625 C56.33659901 32.32087008 61.01744977 36.50943673 65.875 44.1875 C69.00293335 52.95368262 67.86915509 62.21442329 64 70.4375 C60.43323007 76.81445231 56.17007066 82.05213077 50.9375 87.125 C50.37417969 87.69734375 49.81085938 88.2696875 49.23046875 88.859375 C38.00513627 99.45652585 22.54427894 102.78609833 7.5625 102.40234375 C-8.26884112 101.19110968 -22.45911123 93.89889272 -33.0625 82.125 C-41.51013108 71.09264598 -46.47901464 58.30391741 -46.375 44.375 C-46.37008545 43.58931641 -46.3651709 42.80363281 -46.36010742 41.99414062 C-46.07067913 27.49600947 -40.90067592 14.81581784 -31.0625 4.125 C-22.48066433 -2.70544064 -10.13946189 -4.69634651 0 0 Z M-22.0625 18.125 C-23.5525098 20.4955972 -24.73487885 22.60778103 -25.875 25.125 C-26.32262695 26.04925781 -26.32262695 26.04925781 -26.77929688 26.9921875 C-31.07740937 36.03471763 -31.54458756 46.66497876 -29 56.375 C-24.95777081 67.7272418 -17.65770169 76.33972882 -7.0625 81.9375 C3.4069141 86.77443296 14.41228851 87.98044146 25.5 84.16015625 C35.99448193 79.70336504 44.86633051 72.71905886 50.0859375 62.421875 C51.5244602 58.54182294 51.83984844 55.17027394 50.9375 51.125 C47.35391528 44.46977123 40.9056425 42.36830513 33.9375 40.125 C32.9475 40.125 31.9575 40.125 30.9375 40.125 C30.4425 41.48625 30.4425 41.48625 29.9375 42.875 C27.31066239 47.14361111 24.74684356 48.81114898 19.9375 50.125 C14.93743393 50.5102131 10.5185881 50.00329301 6.4375 46.9375 C3.24686074 43.34803084 1.88578452 40.78129534 1.98046875 35.91796875 C2.35848241 31.61717183 3.22885493 28.10950429 4.9375 24.125 C3.14774844 22.64351668 1.35563943 21.16488094 -0.4375 19.6875 C-1.43523437 18.86378906 -2.43296875 18.04007813 -3.4609375 17.19140625 C-7.08587929 14.31213567 -9.1729784 13.96318135 -13.796875 13.69921875 C-17.29455815 14.35654196 -19.31352743 15.88897632 -22.0625 18.125 Z "
     fill="#000000"
     transform="translate(156.0625,218.875)"
     id="path4" />
  <path
     d="M0 0 C2.48836965 3.73255448 2.54226552 5.58440935 2 10 C0.0625 12.5 0.0625 12.5 -3 14 C-7.32545956 13.93023452 -11.10926979 13.20120023 -15.3203125 12.25 C-30.89528337 8.81094062 -44.5103704 9.70397077 -60 13 C-67.9122842 14.67438379 -67.9122842 14.67438379 -72.125 12.0625 C-74.31076145 8.49242297 -74.33908425 6.87731417 -73.78515625 2.8671875 C-72.67588197 0.22921186 -71.47489365 -0.55799977 -69 -2 C-66.61144806 -2.7980185 -64.18902419 -3.49796342 -61.75 -4.125 C-60.48671875 -4.45757812 -59.2234375 -4.79015625 -57.921875 -5.1328125 C-41.17991278 -9.0598105 -14.87439251 -10.0893635 0 0 Z "
     fill="#000000"
     transform="translate(122,331)"
     id="path5" />
  <path
     d="M0 0 C1.87064787 2.89801956 2.00055973 3.98404758 1.875 7.5625 C1 11 1 11 -0.5 13 C-5.38903317 14.95561327 -10.55796364 13.30333584 -15.546875 12.25390625 C-31.10961262 8.99736466 -44.49626136 9.49797904 -60 13 C-67.79541667 14.59 -67.79541667 14.59 -72.0625 12.5 C-74 10 -74 10 -74.625 6.5625 C-73.83282973 2.04712949 -72.49883778 0.89930466 -69 -2 C-65.51171875 -3.328125 -65.51171875 -3.328125 -61.6875 -4.25 C-60.43324219 -4.56453125 -59.17898438 -4.8790625 -57.88671875 -5.203125 C-41.4597336 -8.57106969 -14.34989565 -10.62822696 0 0 Z "
     fill="#000000"
     transform="translate(462,331)"
     id="path6" />
  <path
     d="M0 0 C14.10342787 3.4539007 29.60522839 11.30432697 37.87109375 23.703125 C38.53225077 30.64527376 38.53225077 30.64527376 36.30859375 34.203125 C32.87973261 36.31319339 30.82889024 36.32804023 26.87109375 35.703125 C24.62109375 33.703125 24.62109375 33.703125 23.4375 32.33203125 C15.16966157 23.73430401 4.69900248 19.06919764 -6.4921875 15.73046875 C-9.14237297 14.69787797 -10.45047588 13.97263052 -12.12890625 11.703125 C-12.76314739 7.42199728 -12.56123723 5.39485456 -10.25390625 1.703125 C-6.36925969 -0.7830488 -4.45476741 -0.71488095 0 0 Z "
     fill="#000000"
     transform="translate(400.12890625,354.296875)"
     id="path7" />
  <path
     d="M0 0 C3.32274404 2.45594125 4.77618008 3.9256644 5.625 8 C4.78075677 12.05236753 3.13951762 13.34283414 0 16 C-3.3125 17.265625 -3.3125 17.265625 -7 18.25 C-17.11762655 21.24336583 -25.49356683 26.57481824 -32 35 C-35.09173752 36.54586876 -37.59429552 36.29359521 -41 36 C-43.4375 34.5 -43.4375 34.5 -45 32 C-45.75918365 27.85899828 -45.94182134 25.57973227 -43.77734375 21.94921875 C-35.00153404 11.2647223 -14.60599534 -2.71739448 0 0 Z "
     fill="#000000"
     transform="translate(119,354)"
     id="path8" />
  <path
     d="M0 0 C2.37730508 1.58487005 2.87281314 2.56445896 3.671875 5.30078125 C4.36015475 10.96270157 1.13597964 16.86696211 -2.25 21.3125 C-8.77732773 27.69147938 -15.79945861 30.97894563 -25 31.3125 C-29.69462157 31.2193243 -32.89879788 30.26875011 -37 28 C-38.61408479 24.77183041 -38.57258438 21.49069516 -38 18 C-36.1875 15.5 -36.1875 15.5 -33 14 C-30.20336633 13.8597433 -27.45071068 13.94080116 -24.65234375 14.0234375 C-20.89457092 13.99023185 -18.96417004 13.32899074 -16 11 C-14.59091879 8.77448056 -13.39381079 6.54002295 -12.2734375 4.15625 C-9.08372873 -1.24472927 -5.85811485 -1.49115651 0 0 Z "
     fill="#000000"
     transform="translate(327,206)"
     id="path9" />
  <path
     d="M0 0 C3.58165629 0.83145593 4.28890533 1.11830901 6.5 3.8125 C7.14828594 5.12494828 7.75167164 6.46036588 8.3125 7.8125 C9.71838615 10.66623905 10.48414096 11.80012222 13.0625 13.8125 C16.40241292 14.78411103 18.62915059 14.85613849 22.0625 14.75 C25.71008318 14.66551919 27.31790576 14.72680859 30.6875 16.3125 C32.89312618 19.354743 33.16649896 21.21685876 32.92578125 24.91015625 C32.26481835 27.86326572 30.94490139 29.11465181 28.5 30.8125 C19.84117385 33.51040794 11.46803247 31.74143767 3.5 27.8125 C-3.35303892 23.56645517 -7.16212047 17.16060847 -9.5 9.5625 C-9.5 6.0923707 -8.61373582 4.53016034 -6.5 1.8125 C-3.5 -0.1875 -3.5 -0.1875 0 0 Z "
     fill="#000000"
     transform="translate(190.5,205.1875)"
     id="path10" />
  <path
     d="m 260.49257,286.1784 c 2.56296,2.23226 2.93752,3.58051 3.4375,6.9375 -0.5625,3.93751 -1.40023,5.48082 -4.4375,8.0625 -2.82296,0.71731 -5.17704,0.71731 -8,0 -3.03727,-2.58168 -3.875,-4.12499 -4.4375,-8.0625 0.48376,-3.2481 1.13161,-4.63161 3.4375,-6.9375 3.7948,-1.26494 6.12358,-0.89988 10,0 z"
     fill="#000000"
     id="path11" />
</svg>
